<svg width="298" height="297" viewBox="0 0 298 297" fill="none" xmlns="http://www.w3.org/2000/svg">
<g clip-path="url(#clip0_8_4100)">
<path d="M13.7052 41.7764C13.7052 41.7764 20.6212 37.0036 21.48 31.0756C22.0652 26.888 23.304 15.374 23.9804 8.99C24.1452 7.35088 24.7855 5.79568 25.8225 4.51564C26.8595 3.23561 28.248 2.28655 29.8172 1.7852C32.1101 1.01187 34.4988 0.559185 36.9156 0.439996C46.7956 0.0751959 77.416 0.439996 77.416 0.439996C77.416 0.439996 88.4208 0.287997 89.2492 8.192C90.0776 16.096 90.3968 29.7456 92.8668 33.8648C94.7656 36.7776 97.0341 39.4319 99.6156 41.7612H13.7356L13.7052 41.7764Z" fill="#F5F5F5"/>
<path d="M13.7052 41.7764L38.124 41.6624L99.6156 41.5864L99.4864 41.9208C97.7172 40.3121 96.0804 38.5635 94.592 36.692C93.8256 35.7351 93.1369 34.7185 92.5324 33.652C92.0045 32.5144 91.6239 31.314 91.4 30.08C90.3664 25.1856 90.0624 20.086 89.652 14.9332C89.5 12.942 89.3556 10.966 89.1656 9.00519L89.0972 8.24519C89.0972 8.00199 89.006 7.77399 88.9604 7.53839L88.8236 6.83159L88.5652 6.17039C88.2141 5.28593 87.6836 4.48376 87.0072 3.81439C85.5864 2.54826 83.8732 1.65509 82.0216 1.21519C80.1939 0.754821 78.3122 0.545167 76.428 0.591991C68.8964 0.508391 61.6384 0.45519 54.7224 0.43999H44.6144L39.7732 0.500791C38.1924 0.546391 36.6192 0.53879 35.1068 0.71359C33.614 0.890596 32.1393 1.19572 30.6988 1.62559C29.9954 1.81557 29.3111 2.06998 28.6544 2.38559C28.0227 2.70319 27.4351 3.10175 26.9064 3.57119C25.8809 4.48871 25.0977 5.64518 24.6264 6.93799C24.2362 8.20706 24.0014 9.51877 23.9272 10.8444C23.3268 16.0428 22.7872 20.7244 22.3084 24.874C22.0728 26.9336 21.8524 28.8564 21.6472 30.6272C21.4424 32.2449 20.893 33.7999 20.036 35.1872C19.3556 36.2985 18.5637 37.3375 17.6724 38.288C17.0312 38.9894 16.3485 39.6518 15.628 40.2716C15.0428 40.7732 14.5792 41.138 14.26 41.366L13.8952 41.632L13.766 41.708L13.8876 41.6092L14.2372 41.3356C14.5488 41.0924 14.9972 40.72 15.5748 40.2108C16.2841 39.5812 16.9565 38.9113 17.5888 38.2044C18.4495 37.2487 19.2132 36.21 19.8688 35.1036C20.7044 33.7137 21.2233 32.1568 21.3888 30.5436C21.5864 28.7753 21.7992 26.8551 22.0272 24.7828C22.4832 20.656 23.0076 15.9516 23.5472 10.7532C23.6161 9.40456 23.8509 8.06956 24.2464 6.77839C24.7296 5.43188 25.5453 4.22931 26.6176 3.28239C27.1647 2.79181 27.7757 2.37764 28.434 2.05119C29.108 1.73294 29.8102 1.4785 30.5316 1.29119C32.0032 0.874872 33.5088 0.590021 35.0308 0.43999C36.5508 0.25759 38.1468 0.265189 39.7352 0.219589L44.5764 0.151189L54.6844 0.11319C61.6004 0.11319 68.866 0.166391 76.39 0.242391C78.3072 0.195191 80.222 0.407377 82.0824 0.87319C83.9995 1.33105 85.7728 2.25817 87.2428 3.57119C87.958 4.27705 88.5195 5.12316 88.892 6.05639L89.1656 6.76319L89.31 7.52319C89.3556 7.76639 89.4164 8.01719 89.4468 8.28319L89.5228 9.04319C89.7052 11.0116 89.8572 12.9952 90.0092 14.9788C90.4196 20.124 90.7236 25.2312 91.742 30.0648C91.9696 31.2613 92.3502 32.4235 92.8744 33.5228C93.4659 34.5735 94.1447 35.5726 94.9036 36.5096C96.3794 38.3471 98.0037 40.0604 99.76 41.632L100.132 41.9664H99.6384L38.0784 41.8904L13.7052 41.7764Z" fill="#263238"/>
<path d="M99.6156 167.062C99.6156 167.062 92.6996 171.835 91.8788 177.763C91.2936 181.951 90.0548 193.465 89.3784 199.849C89.2136 201.488 88.5733 203.043 87.5363 204.323C86.4993 205.603 85.1108 206.552 83.5416 207.054C81.2375 207.819 78.8384 208.262 76.4128 208.368C66.5328 208.741 35.9048 208.368 35.9048 208.368C35.9048 208.368 24.9 208.52 24.0716 200.624C23.2432 192.728 22.924 179.063 20.454 174.951C18.5566 172.035 16.288 169.378 13.7052 167.047H99.5852L99.6156 167.062Z" fill="#F5F5F5"/>
<path d="M99.6156 167.062L75.1968 167.176L13.7052 167.252L13.8344 166.918C15.6036 168.527 17.2404 170.275 18.7288 172.147C19.4952 173.104 20.1839 174.12 20.7884 175.187C21.3321 176.316 21.7256 177.512 21.9588 178.744C22.9924 183.63 23.2964 188.73 23.7068 193.883C23.8588 195.874 24.0032 197.85 24.1932 199.811L24.2616 200.571C24.2616 200.814 24.3528 201.042 24.3984 201.278L24.5352 201.984L24.7936 202.653C25.1356 203.531 25.6528 204.33 26.3136 205.002C27.7344 206.268 29.4476 207.161 31.2992 207.601C33.1263 208.064 35.0085 208.274 36.8928 208.224C44.4244 208.308 51.6824 208.361 58.5984 208.376H68.7064L73.5476 208.315C75.1284 208.27 76.7016 208.315 78.214 208.102C79.7074 207.929 81.1825 207.624 82.622 207.19C83.3254 207 84.0097 206.746 84.6664 206.43C85.2997 206.116 85.8876 205.717 86.4144 205.245C87.4416 204.329 88.2251 203.172 88.6944 201.878C89.0852 200.609 89.32 199.297 89.3936 197.972C89.994 192.773 90.5336 188.092 91.0124 183.942C91.248 181.882 91.4684 179.96 91.6736 178.189C91.8753 176.57 92.425 175.015 93.2848 173.629C93.9657 172.518 94.7577 171.479 95.6484 170.528C96.2856 169.823 96.9686 169.16 97.6928 168.544C98.278 168.035 98.7416 167.678 99.0608 167.442L99.4256 167.184L99.5548 167.1L99.4332 167.199L99.0836 167.473C98.7796 167.716 98.3236 168.088 97.746 168.598C97.0386 169.229 96.3662 169.899 95.732 170.604C94.8713 171.56 94.1076 172.598 93.452 173.705C92.6062 175.093 92.0745 176.649 91.894 178.265C91.6964 180.038 91.4836 181.956 91.2556 184.018C90.7996 188.152 90.2752 192.849 89.7356 198.048C89.6604 199.396 89.4231 200.731 89.0288 202.022C88.2843 204.075 86.7873 205.767 84.8412 206.757C84.1673 207.076 83.465 207.33 82.7436 207.517C81.2896 207.96 79.7992 208.273 78.29 208.452C76.77 208.634 75.174 208.627 73.5932 208.672L68.7444 208.748H58.6364C51.7204 208.748 44.4548 208.695 36.9308 208.619C35.0134 208.67 33.0982 208.458 31.2384 207.988C29.3202 207.534 27.5462 206.606 26.078 205.29C25.3613 204.586 24.7996 203.739 24.4288 202.805L24.1552 202.106L24.0108 201.346C23.9652 201.103 23.9044 200.852 23.874 200.586L23.798 199.826C23.6156 197.858 23.4636 195.882 23.3116 193.89C22.9012 188.745 22.5972 183.646 21.5788 178.804C21.3512 177.608 20.9706 176.446 20.4464 175.346C19.8607 174.307 19.1896 173.318 18.44 172.39C16.9721 170.534 15.3555 168.801 13.6064 167.207L13.234 166.872H13.728L75.288 166.948L99.6156 167.062Z" fill="#263238"/>
<path d="M95.8916 40.2716H16.8516C7.78953 40.2716 0.443237 47.6179 0.443237 56.68V152.881C0.443237 161.943 7.78953 169.289 16.8516 169.289H95.8916C104.954 169.289 112.3 161.943 112.3 152.881V56.68C112.3 47.6179 104.954 40.2716 95.8916 40.2716Z" fill="#F5F5F5"/>
<path d="M95.884 169.282L97.0544 169.206C97.5315 169.178 98.0062 169.12 98.4756 169.031C99.1336 168.929 99.7837 168.782 100.421 168.59C102.526 167.966 104.484 166.927 106.181 165.534C107.878 164.141 109.279 162.423 110.301 160.481C110.987 159.138 111.498 157.713 111.821 156.24C112.108 154.6 112.223 152.934 112.163 151.27C112.163 147.781 112.163 143.989 112.163 139.915C112.163 131.76 112.163 122.481 112.163 112.221C112.163 101.961 112.163 90.728 112.163 78.6592C112.163 72.6349 112.163 66.4029 112.163 59.9632C112.163 58.3596 112.201 56.7332 112.087 55.1296C111.777 51.85 110.469 48.7442 108.34 46.23C107.26 44.9608 105.994 43.8616 104.586 42.9696C103.165 42.053 101.6 41.38 99.9576 40.9784C99.1346 40.7639 98.296 40.614 97.4496 40.53C96.5984 40.4844 95.7396 40.4388 94.8732 40.454H16.8592C12.9767 40.4726 9.22709 41.8706 6.28003 44.3984C3.37114 46.8919 1.44705 50.3413 0.853626 54.1264C0.639137 56.0031 0.565464 57.8931 0.633225 59.7808V76.6072C0.633225 91.3664 0.633225 105.609 0.633225 119.167C0.633225 125.957 0.633225 132.566 0.633225 138.996V148.488C0.633225 150.046 0.633225 151.596 0.633225 153.124C0.664671 154.632 0.89465 156.13 1.31723 157.578C2.17101 160.352 3.74704 162.849 5.8838 164.814C8.02057 166.778 10.6412 168.139 13.4772 168.757C14.1536 168.879 14.8376 169 15.5216 169.054C16.2056 169.107 16.8896 169.145 17.5736 169.13H29.5208L78.1152 169.19L91.3316 169.228H94.7668C95.5268 169.228 95.9372 169.228 95.9372 169.228H94.7668H91.3316L78.1152 169.266L29.5208 169.335H17.5204C16.8364 169.335 16.1372 169.297 15.4456 169.266C14.754 169.236 14.0548 169.084 13.3556 168.962C10.4686 168.33 7.80178 166.941 5.62883 164.937C3.45587 162.934 1.85499 160.389 0.990426 157.562C0.557706 156.08 0.320104 154.547 0.283626 153.002C0.283626 151.482 0.283626 149.962 0.283626 148.359V139.003C0.283626 132.574 0.283626 125.964 0.283626 119.175C0.283626 105.609 0.283626 91.3664 0.283626 76.6148V59.7808C0.209719 57.8729 0.283406 55.9621 0.504027 54.0656C1.11233 50.1895 3.08201 46.657 6.05962 44.102C9.0809 41.5169 12.921 40.087 16.8972 40.0664H94.8276C98.3066 39.898 101.754 40.797 104.708 42.6428C106.152 43.5524 107.447 44.6805 108.546 45.9868C110.716 48.566 112.043 51.7494 112.346 55.1068C112.467 56.756 112.414 58.3672 112.422 59.9708C112.422 66.4004 112.422 72.6324 112.422 78.6668C112.422 90.7356 112.422 101.968 112.422 112.228C112.422 122.488 112.422 131.768 112.422 139.923C112.422 143.996 112.422 147.789 112.422 151.277C112.477 152.955 112.354 154.634 112.057 156.286C111.735 157.768 111.224 159.204 110.537 160.557C109.496 162.513 108.072 164.239 106.349 165.634C104.627 167.028 102.642 168.062 100.512 168.674C99.8727 168.861 99.2198 169.001 98.5592 169.092C98.085 169.18 97.6049 169.233 97.1228 169.251L95.884 169.282Z" fill="#263238"/>
<path d="M96.5605 44.7784H16.2589C10.647 44.7784 6.09766 49.3277 6.09766 54.9396V153.899C6.09766 159.511 10.647 164.06 16.2589 164.06H96.5605C102.172 164.06 106.722 159.511 106.722 153.899V54.9396C106.722 49.3277 102.172 44.7784 96.5605 44.7784Z" fill="#263238"/>
<path d="M96.5604 164.44H16.2588C13.4638 164.438 10.7837 163.327 8.80732 161.351C6.8309 159.374 5.71966 156.694 5.71765 153.899V54.9396C5.71966 52.1445 6.8309 49.4645 8.80732 47.4881C10.7837 45.5116 13.4638 44.4004 16.2588 44.3984H96.5604C99.3555 44.4004 102.036 45.5116 104.012 47.4881C105.988 49.4645 107.1 52.1445 107.102 54.9396V153.899C107.1 156.694 105.988 159.374 104.012 161.351C102.036 163.327 99.3555 164.438 96.5604 164.44ZM16.2588 45.1204C13.6659 45.1244 11.1804 46.1562 9.34694 47.9897C7.51348 49.8231 6.48167 52.3087 6.47765 54.9016V153.899C6.48167 156.492 7.51348 158.978 9.34694 160.811C11.1804 162.645 13.6659 163.676 16.2588 163.68H96.5604C99.154 163.678 101.641 162.647 103.475 160.813C105.308 158.979 106.34 156.493 106.342 153.899V54.9396C106.338 52.3467 105.306 49.8611 103.472 48.0277C101.639 46.1942 99.1533 45.1624 96.5604 45.1584L16.2588 45.1204Z" fill="#263238"/>
<path d="M115.887 93.16H112.292V69.7596H116.412C116.639 69.7586 116.864 69.8025 117.074 69.8887C117.284 69.975 117.475 70.1019 117.636 70.2622C117.797 70.4225 117.925 70.613 118.012 70.8228C118.1 71.0326 118.144 71.2576 118.144 71.4848V90.88C118.144 91.4808 117.907 92.0573 117.485 92.4842C117.062 92.9111 116.488 93.154 115.887 93.16Z" fill="#E0E0E0"/>
<path d="M115.887 93.16C115.887 93.16 116.092 93.16 116.45 93.046C116.969 92.8917 117.416 92.5576 117.711 92.1036C117.915 91.7762 118.03 91.4018 118.046 91.0168C118.046 90.576 118.046 90.1048 118.046 89.6032C118.046 88.5772 118.046 87.4144 118.046 86.1376C118.046 83.5612 118.046 80.506 118 77.124C118 75.4292 118 73.6508 118 71.804C118.049 71.3778 117.935 70.949 117.681 70.6032C117.555 70.435 117.395 70.2947 117.212 70.1914C117.029 70.088 116.826 70.0238 116.617 70.0028H112.338L112.536 69.8052C112.536 79.9436 112.498 88.6684 112.437 93.1676L112.338 93.0688L115.013 93.1144H115.705H115.933C115.857 93.1243 115.78 93.1243 115.705 93.1144H115.013L112.338 93.16H112.247C112.186 88.6608 112.148 79.936 112.14 69.7976V69.6H113.744C114.732 69.6 115.667 69.6 116.662 69.6C116.924 69.6292 117.177 69.7117 117.406 69.8424C117.635 69.9731 117.834 70.1493 117.992 70.36C118.295 70.7743 118.436 71.2854 118.388 71.7964C118.388 73.6432 118.388 75.4216 118.388 77.1164C118.388 80.4984 118.388 83.5536 118.342 86.13C118.342 87.4068 118.342 88.5696 118.342 89.5956C118.342 90.1048 118.342 90.576 118.342 91.0168C118.313 91.432 118.177 91.8326 117.947 92.1796C117.624 92.6517 117.136 92.9854 116.579 93.1144C116.354 93.1766 116.118 93.1922 115.887 93.16Z" fill="#263238"/>
<path d="M118.198 75.2088C116.2 75.4722 114.176 75.4722 112.178 75.2088C114.176 74.9454 116.2 74.9454 118.198 75.2088Z" fill="#263238"/>
<path d="M118.068 71.7964C116.071 72.0598 114.047 72.0598 112.049 71.7964C114.047 71.533 116.071 71.533 118.068 71.7964Z" fill="#263238"/>
<path d="M118.198 79.1304C116.2 79.3938 114.176 79.3938 112.178 79.1304C114.176 78.8669 116.2 78.8669 118.198 79.1304Z" fill="#263238"/>
<path d="M118.198 83.052C116.2 83.3154 114.176 83.3154 112.178 83.052C114.176 82.7885 116.2 82.7885 118.198 83.052Z" fill="#263238"/>
<path d="M118.198 86.9736C116.2 87.237 114.176 87.237 112.178 86.9736C114.176 86.7101 116.2 86.7101 118.198 86.9736Z" fill="#263238"/>
<path d="M118.198 90.88C116.2 91.1434 114.176 91.1434 112.178 90.88C114.176 90.6165 116.2 90.6165 118.198 90.88Z" fill="#263238"/>
<path d="M115.218 111.879H112.292V141.792H115.218V111.879Z" fill="#F5F5F5"/>
<path d="M115.218 141.8C115.218 141.8 115.218 141.58 115.218 141.177C115.218 140.774 115.218 140.174 115.218 139.444C115.218 137.924 115.218 135.743 115.158 133.068C115.158 127.679 115.112 120.239 115.074 111.886L115.272 112.084H112.3C112.688 111.681 112.406 111.978 112.49 111.894V116.781C112.49 118.384 112.49 119.942 112.49 121.462C112.49 124.502 112.49 127.337 112.49 129.929C112.452 135.066 112.422 139.186 112.406 141.785L112.323 141.709L114.474 141.754H115.044H115.249C115.249 141.754 115.196 141.754 115.074 141.754H114.527L112.323 141.8H112.247C112.247 139.201 112.194 135.082 112.163 129.944C112.163 127.352 112.163 124.51 112.163 121.478V116.796C112.163 115.998 112.163 115.185 112.163 114.372V111.909C112.254 111.818 111.966 112.092 112.368 111.696H115.484V111.886C115.484 120.292 115.424 127.786 115.401 133.212C115.401 135.864 115.355 138.015 115.34 139.535C115.34 140.25 115.34 140.812 115.34 141.23C115.315 141.423 115.274 141.614 115.218 141.8Z" fill="#263238"/>
<path d="M56.744 121.128C66.6246 121.128 74.6344 113.118 74.6344 103.238C74.6344 93.357 66.6246 85.3472 56.744 85.3472C46.8634 85.3472 38.8536 93.357 38.8536 103.238C38.8536 113.118 46.8634 121.128 56.744 121.128Z" fill="#FF2D55"/>
<path d="M66.3591 93.6667H46.8719C45.5321 93.6667 44.436 94.7628 44.436 96.1026V99.7564H46.8719V96.1026H66.3591V99.7564H68.7949V96.1026C68.7949 94.7628 67.6988 93.6667 66.3591 93.6667Z" fill="white"/>
<path d="M66.3591 110.718H46.8719V107.064H44.436V110.718C44.436 112.058 45.5321 113.154 46.8719 113.154H66.3591C67.6988 113.154 68.7949 112.058 68.7949 110.718V107.064H66.3591V110.718Z" fill="white"/>
<path d="M60.1353 97.9904C59.7212 97.1622 58.3693 97.1622 57.9552 97.9904L54.1796 105.554L52.8276 102.862C52.6206 102.448 52.2065 102.192 51.7437 102.192H44.436V104.628H50.9885L53.0834 108.83C53.3026 109.244 53.7167 109.5 54.1796 109.5C54.6424 109.5 55.0565 109.244 55.2635 108.83L59.0514 101.267L60.4033 103.958C60.6103 104.372 61.0244 104.628 61.4873 104.628H68.7949V102.192H62.2424L60.1353 97.9904Z" fill="white"/>
<path d="M23.6688 47.2484C23.6688 47.2484 23.1368 47.2484 22.1944 47.3396C20.8552 47.4816 19.5427 47.8117 18.2956 48.32C16.4372 49.0262 14.7412 50.1017 13.31 51.4816C11.5901 53.2035 10.3756 55.3644 9.79883 57.7288C9.50276 58.9499 9.36483 60.2041 9.38843 61.4604C9.38843 62.6916 9.38843 63.8848 9.38843 65.0172C9.38843 67.2972 9.38843 69.3036 9.34283 71.0288C9.29723 72.754 9.29723 74.0688 9.28203 75.0872C9.28203 75.528 9.28203 75.8928 9.28203 76.1892C9.30314 76.315 9.30314 76.4434 9.28203 76.5692C9.26091 76.4434 9.26091 76.315 9.28203 76.1892C9.28203 75.8928 9.28203 75.528 9.24403 75.0872C9.24403 74.0688 9.24403 72.7008 9.18323 71.0288C9.12243 69.3568 9.18323 67.2288 9.13763 65.0172C9.13763 63.8848 9.13763 62.6916 9.13763 61.4604C9.11702 60.1816 9.25487 58.9053 9.54803 57.6604C10.1445 55.2244 11.4047 53.0014 13.1884 51.2384C14.6664 49.8401 16.4184 48.7636 18.3336 48.0768C19.611 47.599 20.9541 47.3196 22.316 47.2484C22.6855 47.2242 23.0562 47.2242 23.4256 47.2484C23.5065 47.2408 23.5879 47.2408 23.6688 47.2484Z" fill="white"/>
<path d="M9.9736 137.833C9.8672 137.833 9.776 125.756 9.776 110.86C9.776 95.9644 9.8672 83.8804 9.9736 83.8804C10.08 83.8804 10.1712 95.9568 10.1712 110.86C10.1712 125.764 10.08 137.833 9.9736 137.833Z" fill="white"/>
<path d="M102.466 145.076C102.352 145.076 102.268 138.38 102.268 130.126C102.268 121.873 102.352 115.177 102.466 115.177C102.58 115.177 102.663 121.873 102.663 130.126C102.663 138.38 102.572 145.076 102.466 145.076Z" fill="white"/>
<path d="M100.801 147.88C100.888 148.125 100.936 148.381 100.946 148.64C101.015 149.307 101.015 149.979 100.946 150.646C100.73 152.885 99.8354 155.005 98.3822 156.722C96.9289 158.438 94.9861 159.67 92.8136 160.253C92.1659 160.433 91.5011 160.545 90.83 160.587C90.5781 160.625 90.3219 160.625 90.07 160.587C90.07 160.511 91.1188 160.504 92.7148 160.002C94.797 159.366 96.6522 158.144 98.0591 156.483C99.4659 154.821 100.365 152.79 100.649 150.631C100.892 148.929 100.725 147.88 100.801 147.88Z" fill="white"/>
<g opacity="0.1">
<path d="M90.8376 47.56C89.3106 47.1301 87.6847 47.2128 86.2092 47.7956C85.4796 48.0978 84.8467 48.594 84.3791 49.2304C83.9116 49.8668 83.6272 50.619 83.5568 51.4056C83.496 53.0852 84.6436 54.59 85.9736 55.616C87.3036 56.642 88.854 57.3716 90.1384 58.4584C94.0372 61.7568 94.592 67.4492 94.896 72.5412C94.8811 73.8765 95.1397 75.2008 95.656 76.4324C95.8638 77.0372 96.2622 77.5584 96.7913 77.9176C97.3204 78.2769 97.9517 78.4549 98.5905 78.4249C99.2294 78.3949 99.8413 78.1586 100.334 77.7514C100.828 77.3442 101.175 76.788 101.326 76.1664C101.671 75.0454 101.812 73.8717 101.744 72.7008V65.8C101.744 61.7264 101.744 57.4856 99.9424 53.8072C98.1412 50.1288 94.212 48.1528 89.9712 47.4004" fill="white"/>
</g>
<g opacity="0.1">
<path d="M11.6 147.644C11.6 144.08 13.3328 141.215 15.9776 141.184C18.6224 141.154 20.8872 143.077 22.5136 145.167C24.14 147.257 25.432 149.651 27.4992 151.308C31.9756 154.902 38.428 153.937 44.1204 153.154C51.9938 152.082 59.9494 151.741 67.8856 152.136C69.0103 152.113 70.1247 152.355 71.1384 152.843C71.6391 153.098 72.0399 153.514 72.2768 154.023C72.5138 154.533 72.5732 155.107 72.4456 155.655C72.0352 156.856 70.5912 157.289 69.3448 157.54C55.7714 160.168 41.9704 161.441 28.1452 161.34C23.7752 161.34 19.162 161.142 15.4456 158.839C11.7292 156.536 11.9268 151.178 11.6 147.644Z" fill="white"/>
</g>
<path d="M122.226 162.761C122.226 162.761 110.172 168.841 106.585 187.75C102.998 206.658 91.8788 247.288 91.8788 247.288C91.8788 247.288 76.96 275.492 77.72 285.972C78.48 296.452 84.56 316.319 99.152 317.086C113.744 317.854 126.907 295.852 126.907 295.852L125.6 197.212L122.226 162.761Z" fill="#088674"/>
<path d="M208.09 143.092L163 147.652L122.226 162.761L123.115 247.288L124.316 326.556H250.346L253.607 174.754L260.12 158.467L208.09 143.092Z" fill="#088674"/>
<g opacity="0.3">
<path d="M247.96 280.363C245.315 278.532 242.093 277.772 238.962 277.05L178.04 262.982C166.503 260.322 154.244 257.662 143.08 261.546C138.856 263.015 134.985 265.349 131.714 268.398C128.443 271.446 125.843 275.144 124.08 279.254C120.622 287.454 122.758 290.304 123.616 298.459L124.012 307.617C131.057 305.048 137.593 298.276 143.483 293.633C149.373 288.989 156.129 284.68 163.6 284.46C168.426 284.323 173.108 285.919 177.721 287.332C197.277 293.288 217.639 296.172 238.08 295.882C240.945 295.837 243.879 295.723 246.531 294.651C249.184 293.58 251.547 291.36 252.026 288.571C252.596 285.364 250.62 282.187 247.96 280.363Z" fill="black"/>
</g>
<path d="M117.134 252C117.134 252 99.76 265.011 94.9036 269.024C91.3924 271.935 81.9836 278.592 86.3764 294.378C90.7692 310.163 101.318 312.724 107.793 311.744C114.268 310.763 117.597 308.179 120.622 304.402C123.647 300.625 136.187 281.07 136.187 281.07L130.487 241.55L117.134 252Z" fill="#FFCC8A"/>
<path d="M121.8 190.379C121.906 190.379 122.294 203.117 122.666 218.826C123.039 234.535 123.252 247.288 123.138 247.288C123.024 247.288 122.644 234.558 122.271 218.841C121.899 203.124 121.663 190.379 121.8 190.379Z" fill="#263238"/>
<path d="M139.485 233.395C139.485 233.395 150.566 238.092 156.524 239.285C158.135 239.614 159.648 240.308 160.948 241.314C163.319 243.138 167.195 245.829 170.242 246.536C170.242 246.536 170.653 250.336 166.518 252.274H161.806L137.296 238.594L139.485 233.395Z" fill="#FFCC8A"/>
<path d="M139.485 233.395C139.698 233.433 144.699 237.454 144.699 237.454C144.699 237.454 163.349 244.674 165.059 246.178C166.769 247.683 166.055 249.735 166.055 250.685C166.055 251.635 163.775 252.464 162.384 252.471C160.993 252.479 124.84 252.714 124.84 252.714C124.556 251.138 124.475 249.531 124.597 247.934C124.901 246.277 127.705 244.073 128.397 242.614C129.088 241.155 129.096 239.361 130.099 237.355C131.102 235.348 134.576 232.438 139.485 233.395Z" fill="#FFCC8A"/>
<path d="M162.627 252.494C162.242 252.481 161.858 252.438 161.48 252.365C160.72 252.258 159.678 252.076 158.379 251.825C155.764 251.324 152.177 250.495 148.286 249.325C144.975 248.328 141.715 247.167 138.52 245.844C137.289 245.335 136.301 244.902 135.632 244.582C135.275 244.434 134.929 244.259 134.598 244.058C134.975 244.149 135.341 244.276 135.693 244.438L138.619 245.586C141.096 246.543 144.547 247.782 148.43 248.952C152.314 250.123 155.871 250.982 158.462 251.552L161.54 252.213C161.911 252.27 162.275 252.365 162.627 252.494Z" fill="#6D3F39"/>
<path d="M143.224 244.871C143.262 244.088 143.431 243.317 143.726 242.591C143.902 241.827 144.2 241.095 144.608 240.425C144.57 241.208 144.401 241.979 144.106 242.705C143.93 243.47 143.632 244.201 143.224 244.871Z" fill="#6D3F39"/>
<path d="M142.016 245.646C142.016 245.646 141.666 245.38 141.446 244.742C141.18 243.901 141.18 242.999 141.446 242.158C141.706 241.334 142.11 240.562 142.639 239.878C143.034 239.361 143.323 239.072 143.399 239.118C143.475 239.164 143.24 239.498 142.905 240.045C142.471 240.744 142.122 241.491 141.864 242.272C141.631 243.049 141.597 243.872 141.765 244.666C141.849 245.266 142.069 245.608 142.016 245.646Z" fill="#6D3F39"/>
<path d="M144.684 245.434C144.585 245.365 145.132 244.453 145.444 243.207C145.755 241.96 145.778 240.927 145.9 240.927C146.129 241.72 146.102 242.566 145.824 243.344C145.672 244.143 145.273 244.874 144.684 245.434Z" fill="#6D3F39"/>
<path d="M133.907 241.041C134.013 241.041 134.021 241.55 134.135 242.12C134.249 242.69 134.424 243.138 134.332 243.199C134.241 243.26 133.876 242.842 133.747 242.196C133.618 241.55 133.8 241.018 133.907 241.041Z" fill="#6D3F39"/>
<path d="M165.986 250.191C165.986 250.191 166.024 249.766 166.085 249.013C166.129 248.561 166.129 248.105 166.085 247.653C166.005 247.063 165.739 246.515 165.325 246.087C164.772 245.623 164.123 245.286 163.425 245.099L161.024 244.233L155.536 242.204C152.174 241.054 148.876 239.725 145.656 238.221C144.692 237.732 143.765 237.173 142.882 236.549C142.578 236.321 142.343 236.139 142.191 236.01C142.039 235.88 141.963 235.804 141.97 235.797C142.317 235.985 142.652 236.193 142.974 236.42C143.878 236.981 144.814 237.489 145.778 237.94C148.21 239.141 151.767 240.342 155.658 241.801L161.138 243.86L163.524 244.765C164.26 244.977 164.939 245.354 165.508 245.867C165.941 246.344 166.208 246.95 166.268 247.592C166.32 248.059 166.32 248.531 166.268 248.998C166.214 249.378 166.154 249.674 166.108 249.864C166.09 249.981 166.049 250.092 165.986 250.191Z" fill="#6D3F39"/>
<path d="M245.68 247.524L164.459 251.377V271.958C164.459 271.958 206.973 282.119 222.743 286.132C238.513 290.144 264.969 290.129 271.93 288.267C278.892 286.405 281.301 268.507 281.301 268.507L261.488 246.133L252.056 245.92L245.68 247.524Z" fill="#FFCC8A"/>
<path d="M164.466 251.377C164.466 251.377 118.106 251.43 117.134 251.977C116.161 252.524 101.493 269.032 101.713 270.559C101.934 272.087 102.154 274.496 106.744 275.157C106.744 275.157 105.43 278.76 108.059 280.622C108.059 280.622 101.06 285.942 104.776 289.476C108.492 293.01 119.535 286.306 122.051 284.338L125.608 283.327C125.608 283.327 130.358 284.992 131.566 284.087C132.47 283.309 133.241 282.387 133.846 281.359C133.846 281.359 146.31 279.839 148.499 278.076L150.68 276.328C150.68 276.328 156.912 277.202 159.428 275.568C161.943 273.934 164.451 271.935 164.451 271.935L170.037 262.556L164.466 251.377Z" fill="#FFCC8A"/>
<path d="M115.88 255.96C115.771 256.23 115.628 256.485 115.454 256.72L114.2 258.635C112.843 260.776 111.598 262.985 110.468 265.254C109.351 267.526 108.379 269.867 107.558 272.262C106.927 274.101 106.615 275.264 106.547 275.248C106.566 274.965 106.614 274.685 106.691 274.412C106.805 273.88 107.01 273.113 107.292 272.178C108.04 269.74 108.983 267.366 110.111 265.08C111.241 262.794 112.529 260.59 113.964 258.483C114.512 257.677 114.975 257.031 115.317 256.606C115.478 256.368 115.667 256.151 115.88 255.96Z" fill="#6D3F39"/>
<path d="M122.879 284.429C122.691 284.518 122.487 284.567 122.279 284.574C121.718 284.637 121.152 284.637 120.592 284.574C118.77 284.282 116.97 283.87 115.203 283.342C113.121 282.772 111.259 282.187 109.929 281.731C109.191 281.523 108.476 281.243 107.793 280.895C108.547 281.027 109.289 281.218 110.012 281.465L115.332 282.985C117.407 283.532 119.277 284.095 120.652 284.323C121.392 284.404 122.135 284.44 122.879 284.429Z" fill="#6D3F39"/>
<path d="M121.344 259.364C121.2 259.683 121.024 259.986 120.82 260.269L119.3 262.648C117.584 265.234 116.036 267.927 114.664 270.711C113.927 272.251 113.3 273.841 112.786 275.469C112.307 276.764 112.05 278.131 112.026 279.512C112.038 279.969 112.15 280.418 112.353 280.828C112.557 281.237 112.847 281.598 113.204 281.883C113.486 282.073 113.793 282.222 114.116 282.324C114.026 282.342 113.933 282.342 113.843 282.324C113.571 282.277 113.312 282.173 113.083 282.02C112.682 281.74 112.35 281.371 112.113 280.943C111.876 280.515 111.74 280.039 111.715 279.55C111.695 278.129 111.929 276.716 112.406 275.378C112.905 273.726 113.53 272.115 114.276 270.559C115.647 267.755 117.238 265.064 119.034 262.511C119.71 261.523 120.272 260.732 120.668 260.193C120.868 259.897 121.094 259.62 121.344 259.364Z" fill="#6D3F39"/>
<path d="M125.174 262.959C125.216 263.285 125.216 263.614 125.174 263.94C125.053 264.823 124.823 265.688 124.49 266.516C123.981 267.728 123.39 268.904 122.72 270.035C121.896 271.401 121.174 272.826 120.561 274.298C119.938 275.732 119.745 277.317 120.006 278.858C120.162 279.471 120.446 280.044 120.839 280.539C121.232 281.034 121.725 281.44 122.286 281.731C123.055 282.149 123.868 282.478 124.711 282.712C125.026 282.786 125.333 282.887 125.63 283.016C125.304 283.006 124.979 282.955 124.665 282.864C123.792 282.68 122.947 282.383 122.15 281.982C121.582 281.694 121.068 281.311 120.63 280.85C120.138 280.307 119.788 279.652 119.611 278.942C119.305 277.318 119.493 275.639 120.151 274.124C120.775 272.637 121.514 271.201 122.362 269.83C123.041 268.717 123.652 267.565 124.194 266.379C124.651 265.281 124.98 264.133 125.174 262.959Z" fill="#6D3F39"/>
<path d="M136.658 274.238C136.658 274.184 137.243 274.443 137.418 275.317C137.505 275.812 137.458 276.321 137.281 276.791C137.081 277.345 136.827 277.877 136.521 278.38C135.818 279.718 134.791 280.86 133.534 281.701C134.496 280.591 135.38 279.415 136.179 278.182C136.795 277.141 137.266 276.122 137.144 275.362C137.079 274.953 136.912 274.566 136.658 274.238Z" fill="#6D3F39"/>
<path d="M128.184 279.276C128.146 279.216 128.518 278.95 129.02 278.425C129.665 277.744 130.18 276.951 130.54 276.084C130.896 275.215 131.091 274.288 131.118 273.348C131.082 272.951 131.082 272.552 131.118 272.155C131.299 272.524 131.393 272.93 131.391 273.341C131.444 274.331 131.275 275.32 130.897 276.236C130.52 277.154 129.938 277.973 129.195 278.63C128.916 278.925 128.569 279.147 128.184 279.276Z" fill="#6D3F39"/>
<path d="M137.813 272.262C137.851 272.262 137.676 272.672 137.22 273.196C136.615 273.87 135.87 274.404 135.039 274.762C134.207 275.12 133.307 275.294 132.402 275.271C132.025 275.298 131.647 275.225 131.308 275.058C132.527 275.044 133.736 274.821 134.88 274.397C135.971 273.857 136.964 273.135 137.813 272.262Z" fill="#6D3F39"/>
<path d="M148.978 275.4C148.434 275.577 147.869 275.682 147.298 275.712C144.552 276.001 141.779 275.884 139.067 275.362C138.5 275.282 137.946 275.129 137.418 274.906C137.418 274.785 139.994 275.317 143.186 275.446C146.378 275.575 148.962 275.279 148.978 275.4Z" fill="#6D3F39"/>
<path d="M132.721 257.966C132.407 258.093 132.072 258.157 131.733 258.156C130.944 258.235 130.16 258.36 129.385 258.528C128.621 258.712 127.889 259.007 127.211 259.402C126.702 259.722 126.451 259.98 126.375 259.942C126.299 259.904 126.55 259.57 127.059 259.182C127.723 258.685 128.484 258.335 129.294 258.156C130.089 257.973 130.902 257.881 131.718 257.882C132.055 257.841 132.396 257.87 132.721 257.966Z" fill="#6D3F39"/>
<path d="M126.413 256.005C125.646 256.027 124.882 256.124 124.133 256.294C123.435 256.586 122.768 256.948 122.142 257.373C122.328 257.008 122.591 256.688 122.914 256.436C123.238 256.183 123.612 256.005 124.012 255.914C124.394 255.753 124.808 255.678 125.222 255.693C125.637 255.709 126.044 255.816 126.413 256.005Z" fill="#6D3F39"/>
<path d="M120.607 253.064C119.83 253.107 119.062 253.258 118.327 253.512C117.649 253.878 117.022 254.333 116.465 254.865C116.419 254.865 116.51 254.576 116.784 254.212C117.152 253.749 117.628 253.383 118.17 253.146C118.711 252.909 119.303 252.808 119.892 252.851C120.356 252.897 120.614 253.018 120.607 253.064Z" fill="#6D3F39"/>
<path d="M171.139 250.761C171.139 250.761 172.37 260.641 171.861 265.627C171.578 268.576 170.445 271.379 168.601 273.698L179.925 276.335C180.797 274.125 181.449 271.834 181.87 269.495C182.387 265.695 183.694 255.656 182.068 250.282L171.139 250.761Z" fill="#F5F5F5"/>
<path d="M184.216 246.717L167.854 247.431C166.948 247.471 166.246 248.237 166.285 249.143L166.304 249.568C166.343 250.474 167.11 251.176 168.016 251.137L184.378 250.422C185.284 250.383 185.986 249.616 185.946 248.711L185.928 248.285C185.888 247.38 185.122 246.677 184.216 246.717Z" fill="#F5F5F5"/>
<path d="M181.376 271.532C181.396 271.291 181.447 271.053 181.528 270.825C181.715 270.202 181.795 269.552 181.764 268.902C181.735 268.468 181.599 268.048 181.369 267.679C181.098 267.273 180.695 266.972 180.229 266.828C179.686 266.67 179.128 266.57 178.564 266.531L176.702 266.326C175.441 266.212 174.202 265.916 173.214 266.235C172.752 266.405 172.358 266.719 172.089 267.132C171.846 267.505 171.643 267.902 171.481 268.317C171.185 269.077 170.987 269.746 170.805 270.179C170.734 270.417 170.618 270.639 170.463 270.833C170.51 270.595 170.576 270.361 170.66 270.134C170.797 269.685 170.949 269.024 171.223 268.218C171.371 267.774 171.57 267.348 171.816 266.949C172.115 266.468 172.563 266.097 173.092 265.893C173.673 265.717 174.283 265.663 174.886 265.733C175.502 265.786 176.11 265.862 176.748 265.931L178.602 266.144C179.196 266.191 179.783 266.305 180.35 266.486C180.891 266.664 181.351 267.028 181.65 267.512C181.893 267.931 182.028 268.403 182.045 268.887C182.052 269.566 181.925 270.24 181.673 270.871C181.612 271.106 181.511 271.33 181.376 271.532Z" fill="#263238"/>
<path d="M176.178 272.353C177.097 272.353 177.842 271.608 177.842 270.688C177.842 269.769 177.097 269.024 176.178 269.024C175.259 269.024 174.514 269.769 174.514 270.688C174.514 271.608 175.259 272.353 176.178 272.353Z" fill="#E0E0E0"/>
<path d="M260.12 249.355C287.807 267.96 271.847 286.489 270.874 290.76C269.901 295.031 284.554 290.76 287.807 287.826C291.06 284.893 296.281 273.82 297.58 267.96C298.88 262.1 294.654 256.879 294.974 252.973C295.293 249.066 282.92 199.188 279.34 181.594C275.761 164 260.12 158.467 260.12 158.467C238.62 156.187 236.013 196.908 236.013 196.908L245.46 238.928L245.688 247.524C245.688 247.524 250.856 244.742 255.195 246.764C259.535 248.785 260.12 249.355 260.12 249.355Z" fill="#088674"/>
<path d="M288.24 260.269C288.141 260.118 288.052 259.96 287.974 259.798L287.29 258.43C286.978 257.837 286.53 257.145 286.074 256.332L285.23 255.078L284.759 254.402L284.22 253.718C282.517 251.515 280.54 249.538 278.337 247.835C275.648 245.745 272.657 244.075 269.468 242.88C266.28 241.679 262.917 241.006 259.512 240.889C256.734 240.78 253.965 241.261 251.388 242.302C249.65 243.012 248.121 244.149 246.942 245.608C246.546 246.169 246.181 246.75 245.847 247.349C245.893 247.175 245.96 247.006 246.045 246.847C246.253 246.379 246.507 245.934 246.805 245.517C247.957 243.989 249.494 242.793 251.258 242.052C253.864 240.953 256.678 240.434 259.504 240.532C262.953 240.63 266.361 241.3 269.59 242.515C272.82 243.718 275.847 245.41 278.565 247.531C280.775 249.264 282.75 251.277 284.44 253.52C284.615 253.763 284.797 253.991 284.972 254.219C285.147 254.447 285.276 254.69 285.428 254.911C285.724 255.367 286.006 255.785 286.256 256.188C286.712 257.024 287.13 257.708 287.419 258.338L288.042 259.744C288.129 259.911 288.195 260.087 288.24 260.269Z" fill="#263238"/>
<path d="M279.53 230.636C279.093 230.674 278.653 230.674 278.216 230.636C277.798 230.636 277.281 230.636 276.696 230.636C276.11 230.636 275.411 230.636 274.659 230.728C273.906 230.819 273.086 230.842 272.204 230.978C271.322 231.115 270.395 231.26 269.415 231.442C265.172 232.317 261.105 233.897 257.384 236.116C256.54 236.648 255.727 237.127 255.013 237.636C254.298 238.145 253.63 238.639 253.037 239.103C252.444 239.566 251.935 240.03 251.479 240.418C251.023 240.805 250.643 241.178 250.339 241.451C250.039 241.774 249.711 242.069 249.358 242.333C249.632 241.991 249.927 241.666 250.24 241.36C250.585 240.976 250.951 240.611 251.334 240.266C251.775 239.863 252.269 239.376 252.854 238.905C253.44 238.434 254.078 237.887 254.815 237.385C255.552 236.884 256.335 236.344 257.194 235.804C260.937 233.526 265.054 231.929 269.354 231.085C270.35 230.91 271.284 230.728 272.181 230.652C273.078 230.576 273.899 230.484 274.659 230.446C275.419 230.408 276.103 230.446 276.711 230.446C277.319 230.446 277.828 230.446 278.231 230.515C278.667 230.52 279.101 230.56 279.53 230.636Z" fill="#263238"/>
<path d="M235.678 200.89C235.748 201.031 235.804 201.179 235.846 201.331C235.952 201.673 236.089 202.091 236.264 202.638C236.613 203.77 237.1 205.42 237.685 207.456C238.855 211.538 240.375 217.207 241.88 223.508C243.385 229.808 244.593 235.546 245.399 239.718C245.802 241.801 246.106 243.518 246.303 244.658C246.394 245.213 246.47 245.662 246.524 246.011C246.554 246.169 246.572 246.329 246.577 246.49C246.515 246.341 246.472 246.186 246.448 246.026L246.151 244.689L245.125 239.772C244.251 235.622 242.997 229.892 241.492 223.599C239.988 217.306 238.513 211.629 237.419 207.532C236.872 205.518 236.431 203.877 236.112 202.676C235.975 202.134 235.861 201.693 235.77 201.354C235.719 201.204 235.688 201.048 235.678 200.89Z" fill="#263238"/>
<path d="M259.231 158.201C258.832 158.385 258.421 158.54 258 158.664C257.604 158.794 257.118 158.953 256.571 159.189C256.024 159.424 255.378 159.637 254.709 159.949C254.04 160.26 253.28 160.602 252.52 161.051C251.76 161.499 250.947 161.97 250.118 162.502C246.535 164.883 243.493 167.99 241.188 171.622C240.672 172.466 240.178 173.264 239.79 174.054C239.402 174.845 239.03 175.574 238.734 176.266C238.437 176.958 238.209 177.596 237.974 178.143C237.738 178.69 237.601 179.192 237.472 179.587C237.361 180.011 237.216 180.425 237.039 180.826C237.097 180.393 237.194 179.965 237.328 179.549C237.443 179.05 237.588 178.557 237.761 178.075C237.966 177.512 238.148 176.844 238.46 176.16C238.772 175.476 239.06 174.693 239.478 173.88C239.897 173.031 240.358 172.204 240.862 171.402C242.046 169.589 243.405 167.896 244.92 166.348C246.455 164.81 248.14 163.43 249.951 162.229C250.733 161.713 251.539 161.236 252.368 160.8C253.128 160.359 253.888 160.04 254.595 159.728C255.302 159.417 255.932 159.212 256.495 158.968C256.972 158.785 257.46 158.628 257.954 158.497C258.37 158.361 258.797 158.262 259.231 158.201Z" fill="#263238"/>
<path d="M171.139 251.377C170.993 251.401 170.846 251.413 170.698 251.415L169.429 251.46L164.748 251.559L149.312 251.719L133.876 251.764H129.202H127.926C127.778 251.768 127.63 251.755 127.485 251.726C127.629 251.692 127.777 251.677 127.926 251.681L129.202 251.635L133.876 251.544L149.312 251.377L164.748 251.331H169.429H170.698C170.847 251.325 170.995 251.34 171.139 251.377Z" fill="#6D3F39"/>
<path d="M164.466 271.958C164.41 272.023 164.346 272.081 164.276 272.132L163.684 272.611C163.152 273.022 162.369 273.63 161.32 274.39C160.796 274.762 160.203 275.15 159.542 275.621C158.792 276.074 157.956 276.367 157.087 276.48C154.961 276.769 152.806 276.769 150.68 276.48H150.771L149.297 277.665C149.038 277.863 148.795 278.083 148.537 278.281L148.088 278.554L147.617 278.767C146.27 279.282 144.882 279.684 143.468 279.968C140.534 280.606 137.327 281.123 133.892 281.572L134.013 281.496C133.609 282.173 133.143 282.811 132.622 283.403C132.35 283.707 132.053 283.986 131.733 284.239C131.361 284.474 130.926 284.588 130.487 284.566C128.803 284.456 127.144 284.103 125.562 283.517H125.668L122.119 284.536H122.18C120.288 285.917 118.279 287.13 116.176 288.161C114.001 289.311 111.668 290.133 109.252 290.6C107.977 290.86 106.653 290.73 105.452 290.228C104.857 289.914 104.356 289.447 104.001 288.875C103.642 288.292 103.472 287.613 103.514 286.93C103.695 285.598 104.258 284.347 105.133 283.327C105.962 282.285 106.908 281.341 107.953 280.515V280.834C107.313 280.386 106.823 279.756 106.547 279.026C106.277 278.277 106.178 277.477 106.258 276.685C106.306 276.168 106.411 275.659 106.57 275.165L106.729 275.423C105.329 275.303 103.994 274.775 102.891 273.903C102.371 273.414 101.995 272.791 101.804 272.102C101.708 271.771 101.637 271.433 101.592 271.091V270.848C101.575 270.75 101.575 270.65 101.592 270.552C101.6 270.451 101.628 270.353 101.675 270.263C101.705 270.177 101.74 270.093 101.782 270.012C102.457 268.861 103.219 267.764 104.062 266.729C104.867 265.688 105.688 264.677 106.516 263.689C109.83 259.729 113.09 255.975 116.396 252.555C116.609 252.329 116.841 252.12 117.088 251.932L117.362 251.863H117.59L118.038 251.825C118.623 251.825 119.201 251.764 119.778 251.742L123.191 251.65L129.719 251.552L141.416 251.468H158.326H162.886L158.326 251.514L141.416 251.658L129.719 251.795L123.198 251.909L119.794 252.008L118.061 252.099L117.628 252.137H117.422H117.27C117.049 252.309 116.841 252.497 116.647 252.699C113.379 256.104 110.119 259.866 106.813 263.826C105.992 264.814 105.171 265.824 104.366 266.866C103.531 267.885 102.769 268.962 102.086 270.088C102.05 270.157 102.02 270.228 101.994 270.301C101.965 270.358 101.944 270.42 101.934 270.483C101.923 270.551 101.923 270.62 101.934 270.688L101.972 270.939C102.019 271.26 102.088 271.577 102.177 271.889C102.343 272.513 102.683 273.077 103.157 273.516C104.197 274.345 105.458 274.85 106.782 274.967L107.01 275.005L106.934 275.226C106.784 275.695 106.687 276.179 106.646 276.67C106.568 277.405 106.659 278.148 106.912 278.843C107.16 279.502 107.602 280.069 108.181 280.47L108.394 280.622L108.181 280.789C107.165 281.593 106.244 282.511 105.437 283.525C104.614 284.481 104.085 285.656 103.917 286.907C103.89 287.509 104.038 288.107 104.345 288.626C104.651 289.146 105.102 289.565 105.642 289.833C106.769 290.302 108.011 290.421 109.207 290.175C111.591 289.716 113.895 288.912 116.047 287.788C118.128 286.767 120.116 285.567 121.99 284.201H122.028L125.577 283.198H125.63H125.684C127.226 283.774 128.844 284.125 130.487 284.239C130.857 284.265 131.226 284.174 131.543 283.981C131.848 283.755 132.131 283.501 132.387 283.221C132.893 282.646 133.349 282.028 133.747 281.374L133.785 281.306H133.861C137.289 280.865 140.496 280.363 143.414 279.74C144.815 279.468 146.19 279.079 147.526 278.577C148.133 278.327 148.689 277.969 149.168 277.521L150.65 276.343H150.688H150.68C152.783 276.647 154.917 276.667 157.026 276.404C157.874 276.301 158.692 276.024 159.428 275.59C160.096 275.157 160.689 274.754 161.214 274.39C162.278 273.63 163.076 273.06 163.615 272.657L164.223 272.208C164.298 272.119 164.379 272.035 164.466 271.958Z" fill="#6D3F39"/>
<path d="M184.173 250.48C184.173 250.586 180.692 250.837 176.391 251.042C172.089 251.248 168.601 251.324 168.593 251.217C171.176 250.893 173.773 250.703 176.376 250.647C178.97 250.455 181.573 250.399 184.173 250.48Z" fill="#263238"/>
<g opacity="0.3">
<path d="M246.44 245.92C248.282 243.156 251.068 241.157 254.276 240.296C257.513 239.554 260.846 239.321 264.156 239.604C269.263 239.855 274.492 240.57 278.945 243.07C283.399 245.57 286.963 250.191 286.948 255.298C284.995 254.402 283.482 252.783 281.947 251.278C277.225 246.473 271.264 243.072 264.726 241.451C258.114 239.931 249.723 241.656 246.486 245.92" fill="black"/>
</g>
<g opacity="0.3">
<path d="M248.766 243.062C252.685 238.706 257.553 235.308 262.994 233.131C268.435 230.954 274.303 230.056 280.146 230.507C280.871 230.614 281.608 230.598 282.327 230.462C282.689 230.39 283.023 230.218 283.292 229.965C283.561 229.713 283.753 229.389 283.847 229.033C284.045 227.855 282.791 226.981 281.674 226.57C277.899 225.326 273.836 225.26 270.023 226.38C266.239 227.508 262.606 229.088 259.2 231.085C256.687 232.342 254.349 233.924 252.246 235.789C250.13 237.675 248.736 240.238 248.302 243.04" fill="black"/>
</g>
<path d="M169.323 175.08C169.323 175.187 159.108 175.278 146.523 175.278C133.937 175.278 123.723 175.187 123.723 175.08C123.723 174.974 133.937 174.883 146.523 174.883C159.108 174.883 169.323 174.966 169.323 175.08Z" fill="white"/>
<path d="M240.55 172.428C240.55 172.542 228.557 172.626 213.768 172.626C198.978 172.626 186.985 172.542 186.985 172.428C186.985 172.314 198.97 172.2 213.76 172.2C228.55 172.2 240.55 172.322 240.55 172.428Z" fill="white"/>
<path d="M281.164 187.81C281.003 187.827 280.84 187.827 280.678 187.81H279.295C278.694 187.81 277.965 187.81 277.114 187.879C276.262 187.947 275.29 187.94 274.226 188.054C273.162 188.168 271.984 188.236 270.737 188.411C269.491 188.586 268.161 188.791 266.762 189.019C260.711 190.127 254.821 191.986 249.229 194.552C247.952 195.167 246.729 195.73 245.627 196.338C244.525 196.946 243.484 197.5 242.587 198.048C241.69 198.595 240.839 199.112 240.117 199.568C239.395 200.024 238.787 200.426 238.293 200.768L237.145 201.528C237.014 201.625 236.874 201.709 236.727 201.779C236.838 201.66 236.963 201.555 237.1 201.468L238.202 200.632C238.68 200.267 239.281 199.834 239.995 199.37C240.71 198.906 241.515 198.344 242.442 197.804C243.37 197.265 244.373 196.634 245.482 196.049C246.592 195.464 247.808 194.848 249.092 194.225C254.695 191.598 260.621 189.727 266.717 188.662C268.123 188.441 269.453 188.206 270.714 188.092C271.976 187.978 273.146 187.841 274.218 187.772C275.29 187.704 276.27 187.681 277.121 187.658C277.972 187.636 278.71 187.658 279.31 187.658L280.701 187.704C280.859 187.721 281.015 187.757 281.164 187.81Z" fill="white"/>
<path d="M288.954 224.078C288.792 224.07 288.631 224.042 288.476 223.994L287.13 223.682L286.165 223.447C285.808 223.371 285.405 223.31 285.002 223.226C284.166 223.082 283.224 222.869 282.16 222.763L280.496 222.55C279.918 222.482 279.31 222.466 278.687 222.413C277.44 222.292 276.095 222.307 274.689 222.292C271.63 222.34 268.581 222.635 265.569 223.173C262.567 223.764 259.617 224.593 256.746 225.651C255.438 226.175 254.184 226.654 253.06 227.216C252.497 227.49 251.935 227.726 251.426 227.976L249.951 228.774C248.994 229.261 248.196 229.8 247.466 230.241C247.109 230.462 246.767 230.667 246.463 230.864L245.68 231.48L244.54 232.24C244.411 232.335 244.273 232.419 244.13 232.491C244.238 232.373 244.361 232.268 244.494 232.179L245.589 231.336L246.387 230.735C246.683 230.53 247.025 230.317 247.382 230.082C248.097 229.626 248.902 229.063 249.845 228.562L251.312 227.741C251.828 227.452 252.383 227.209 252.953 226.928C254.07 226.35 255.332 225.856 256.647 225.316C262.413 223.09 268.539 221.943 274.72 221.934C276.141 221.934 277.494 221.934 278.748 222.094C279.378 222.147 279.986 222.178 280.572 222.254L282.236 222.489C283.308 222.618 284.25 222.854 285.086 223.021C285.504 223.112 285.892 223.181 286.249 223.272L287.206 223.538L288.536 223.926C288.681 223.961 288.821 224.012 288.954 224.078Z" fill="white"/>
<path d="M293.233 245.16C292.868 244.933 292.52 244.679 292.192 244.4C291.873 244.142 291.47 243.838 290.991 243.503C290.512 243.169 289.98 242.743 289.357 242.378C287.927 241.431 286.445 240.563 284.919 239.779C283.044 238.827 281.113 237.992 279.135 237.279C277.146 236.592 275.115 236.031 273.055 235.599C271.373 235.255 269.673 235.001 267.963 234.839C267.203 234.756 266.572 234.74 265.987 234.695C265.402 234.649 264.9 234.642 264.467 234.634C264.04 234.65 263.613 234.627 263.19 234.566C263.614 234.508 264.04 234.48 264.467 234.482C264.878 234.482 265.387 234.482 265.987 234.482C266.588 234.482 267.241 234.482 267.978 234.573C269.706 234.689 271.425 234.915 273.124 235.25C275.203 235.665 277.252 236.221 279.257 236.914C281.252 237.632 283.197 238.482 285.078 239.46C286.612 240.264 288.092 241.165 289.509 242.158C290.125 242.561 290.649 242.986 291.113 243.336C291.576 243.686 291.972 244.012 292.283 244.286C292.622 244.552 292.94 244.844 293.233 245.16Z" fill="white"/>
<path d="M283.885 290C283.929 289.808 283.988 289.62 284.06 289.438C284.166 289.065 284.394 288.541 284.584 287.834C285.196 285.854 285.606 283.817 285.808 281.754C286.121 278.711 285.991 275.639 285.42 272.634C284.081 265.174 279.951 258.505 273.868 253.984C269.762 250.873 264.964 248.803 259.884 247.949C259.17 247.805 258.592 247.774 258.212 247.714C258.016 247.7 257.823 247.664 257.635 247.607C257.83 247.597 258.025 247.597 258.22 247.607C258.608 247.645 259.185 247.653 259.907 247.774C261.982 248.063 264.02 248.573 265.987 249.294C268.9 250.348 271.641 251.828 274.119 253.687C280.3 258.241 284.486 265.003 285.808 272.566C286.37 275.611 286.475 278.723 286.12 281.8C285.887 283.869 285.434 285.907 284.767 287.88C284.546 288.586 284.296 289.103 284.159 289.46C284.09 289.651 283.998 289.832 283.885 290Z" fill="white"/>
<path d="M239.668 222.17C239.668 222.284 213.509 222.368 181.247 222.368C148.985 222.368 122.818 222.284 122.818 222.17C122.818 222.056 148.97 221.972 181.247 221.972C213.524 221.972 239.668 222.064 239.668 222.17Z" fill="white"/>
<path d="M122.18 198.8C121.346 198.749 120.516 198.645 119.695 198.488C118.175 198.26 116.047 197.987 113.706 197.789C111.365 197.592 109.222 197.516 107.679 197.478C106.844 197.503 106.009 197.47 105.179 197.379C106.004 197.238 106.842 197.179 107.679 197.204C109.708 197.164 111.737 197.229 113.759 197.402C115.773 197.57 117.777 197.838 119.763 198.207C120.585 198.329 121.395 198.528 122.18 198.8Z" fill="white"/>
<path d="M123.077 240.372C122.707 240.371 122.337 240.332 121.975 240.258L118.996 239.855C116.48 239.521 112.992 239.148 109.116 238.958C105.24 238.768 101.744 238.799 99.2356 238.882L96.2336 238.996C95.8644 239.028 95.4932 239.028 95.124 238.996C95.4825 238.907 95.8492 238.853 96.2184 238.837C96.9252 238.753 97.9512 238.67 99.2584 238.594C105.884 238.218 112.53 238.544 119.087 239.566C120.348 239.772 121.367 239.954 122.058 240.098C122.404 240.165 122.744 240.256 123.077 240.372Z" fill="white"/>
<path d="M98.9012 265.133C98.9012 265.224 97.1608 265.475 94.516 266.501L93.4824 266.919C93.1252 267.063 92.7756 267.261 92.3956 267.443C91.5998 267.831 90.826 268.262 90.0776 268.735C86.6306 270.902 83.7078 273.806 81.52 277.24C81.0412 278.045 80.5624 278.798 80.2128 279.52C80.0304 279.9 79.8328 280.28 79.6808 280.606C79.5288 280.933 79.3844 281.298 79.2476 281.632C78.2064 284.27 77.9404 286.033 77.8492 286.01C77.8838 285.595 77.9498 285.184 78.0468 284.779C78.1275 284.3 78.2418 283.828 78.3888 283.365C78.5551 282.742 78.7555 282.128 78.9892 281.526L79.3996 280.477C79.544 280.12 79.7416 279.755 79.9164 279.375C80.3048 278.566 80.7387 277.779 81.216 277.019C82.3183 275.278 83.6079 273.662 85.0616 272.201C86.5374 270.764 88.1629 269.49 89.9104 268.401C90.6742 267.932 91.4632 267.506 92.274 267.124C92.6616 266.949 93.034 266.759 93.3836 266.615L94.44 266.212C95.0425 265.985 95.6564 265.79 96.2792 265.627C96.7454 265.485 97.22 265.374 97.7004 265.292C98.0951 265.204 98.497 265.15 98.9012 265.133Z" fill="white"/>
<g opacity="0.3">
<path d="M121.04 248.914C119.619 234.642 120.318 218.066 122.127 203.839C123.115 218.203 122.75 233.205 123.115 247.288" fill="black"/>
</g>
<path d="M208.09 143.092L174.24 188.16L161.518 154.72L161.267 140.569C161.267 140.569 142.449 138.243 141.636 119.532C141.241 110.496 141.94 91.8224 142.768 74.9276C143.195 66.1661 146.905 57.8863 153.159 51.7353C159.412 45.5842 167.753 42.0126 176.52 41.7308L178.329 41.67C197.838 42.202 208.296 59.0664 207.209 78.5604L208.068 143.092" fill="#FFCC8A"/>
<path d="M161.221 140.546C161.221 140.546 173.085 141.139 185.412 132.847C185.412 132.847 180.092 146.527 161.335 145.395L161.221 140.546Z" fill="#6D3F39"/>
<path d="M150.14 90.538C150.152 91.2376 150.439 91.9044 150.938 92.3949C151.437 92.8853 152.108 93.1601 152.808 93.16C153.149 93.1753 153.489 93.1223 153.809 93.0043C154.129 92.8862 154.422 92.7054 154.672 92.4725C154.921 92.2396 155.121 91.9593 155.26 91.648C155.4 91.3366 155.475 91.0006 155.483 90.6596C155.469 89.9627 155.183 89.2989 154.686 88.8103C154.189 88.3217 153.52 88.0471 152.823 88.0452C152.483 88.0299 152.143 88.0826 151.823 88.2001C151.503 88.3176 151.209 88.4976 150.96 88.7296C150.71 88.9616 150.509 89.241 150.368 89.5515C150.228 89.8619 150.15 90.1973 150.14 90.538Z" fill="#263238"/>
<path d="M146.751 82.9608C147.093 83.2952 149.069 81.7372 151.949 81.6536C154.83 81.57 156.98 82.9456 157.269 82.5808C157.414 82.4212 157.056 81.8208 156.114 81.1596C154.844 80.3348 153.348 79.9258 151.835 79.9892C150.337 80.0252 148.89 80.5421 147.708 81.4636C146.88 82.1704 146.584 82.8088 146.751 82.9608Z" fill="#263238"/>
<path d="M176.52 90.538C176.534 91.2362 176.821 91.9012 177.32 92.39C177.819 92.8788 178.489 93.1526 179.188 93.1524C179.528 93.1677 179.869 93.1147 180.189 92.9967C180.509 92.8786 180.802 92.6978 181.051 92.4649C181.3 92.232 181.5 91.9517 181.64 91.6404C181.779 91.329 181.855 90.993 181.863 90.652C181.849 89.9551 181.563 89.2913 181.066 88.8027C180.568 88.3141 179.9 88.0395 179.203 88.0376C178.861 88.0213 178.52 88.0735 178.199 88.1911C177.878 88.3086 177.584 88.4893 177.334 88.7223C177.084 88.9553 176.883 89.236 176.744 89.5478C176.604 89.8597 176.528 90.1963 176.52 90.538Z" fill="#263238"/>
<path d="M175.395 81.2508C175.699 81.6232 177.835 80.2856 180.715 80.4908C183.596 80.696 185.572 82.3224 185.914 82.0108C186.081 81.8664 185.792 81.2128 184.926 80.4908C183.753 79.5317 182.31 78.9607 180.799 78.8568C179.305 78.7342 177.812 79.091 176.535 79.8752C175.593 80.4756 175.243 81.0836 175.395 81.2508Z" fill="#263238"/>
<path d="M165.584 105.252C165.584 105.084 163.798 104.834 160.887 104.552C160.127 104.499 159.45 104.378 159.306 103.876C159.226 103.12 159.374 102.358 159.732 101.687L161.73 96.0252C164.497 87.9616 166.473 81.342 166.154 81.2356C165.834 81.1292 163.319 87.574 160.552 95.63C159.884 97.6212 159.245 99.5136 158.645 101.322C158.394 102.166 157.946 103.131 158.356 104.218C158.47 104.474 158.641 104.701 158.855 104.882C159.07 105.062 159.323 105.191 159.595 105.259C160.005 105.357 160.427 105.4 160.849 105.388C163.767 105.457 165.576 105.411 165.584 105.252Z" fill="#263238"/>
<path d="M174.612 68.84C174.916 69.6 177.782 69.1516 181.171 69.448C184.561 69.7444 187.32 70.588 187.745 69.8736C187.928 69.5316 187.434 68.8096 186.309 68.0876C184.81 67.2067 183.13 66.6802 181.396 66.5485C179.663 66.4168 177.922 66.6833 176.307 67.3276C175.084 67.852 174.476 68.4828 174.612 68.84Z" fill="#263238"/>
<path d="M147.199 77.2836C147.724 77.922 149.684 77.1772 152.071 77.0708C154.457 76.9644 156.486 77.3748 156.927 76.6756C157.125 76.3412 156.783 75.6952 155.886 75.1024C154.676 74.4012 153.286 74.0732 151.891 74.1597C150.495 74.2463 149.157 74.7435 148.043 75.5888C147.222 76.288 146.971 76.972 147.199 77.2836Z" fill="#263238"/>
<path d="M206.16 92.476C206.472 92.324 218.905 88.2656 218.89 101.079C218.875 113.893 206.023 111.24 205.97 110.876C205.917 110.511 206.16 92.476 206.16 92.476Z" fill="#FFCC8A"/>
<path d="M209.899 106.019C209.952 106.019 210.12 106.179 210.5 106.354C211.034 106.569 211.63 106.569 212.164 106.354C213.517 105.86 214.657 103.709 214.725 101.406C214.756 100.307 214.543 99.2138 214.102 98.2064C213.981 97.8061 213.765 97.4409 213.473 97.1419C213.18 96.8429 212.82 96.6188 212.422 96.4888C212.166 96.4211 211.894 96.4457 211.653 96.5582C211.413 96.6707 211.22 96.864 211.108 97.1044C210.933 97.4616 211.016 97.72 210.948 97.7428C210.88 97.7656 210.674 97.5224 210.773 96.9828C210.844 96.6632 211.024 96.3783 211.282 96.1772C211.633 95.9093 212.076 95.7918 212.514 95.8504C213.04 95.9556 213.531 96.1939 213.939 96.5424C214.348 96.891 214.66 97.3382 214.847 97.8416C215.387 98.9528 215.648 100.179 215.607 101.414C215.523 103.99 214.201 106.407 212.346 106.946C212.003 107.044 211.642 107.065 211.289 107.006C210.937 106.946 210.602 106.809 210.31 106.604C209.96 106.331 209.854 106.08 209.899 106.019Z" fill="#6D3F39"/>
<path d="M139.987 53.1232C140.473 50.6304 142.267 48.1984 144.737 47.7424C144.183 46.5542 144.046 45.2138 144.349 43.9382C144.652 42.6627 145.376 41.5267 146.405 40.7141C147.434 39.9016 148.707 39.4601 150.018 39.4612C151.329 39.4623 152.601 39.9058 153.629 40.72C153.355 36.8212 158.044 33.5228 161.616 35.1112C161.512 33.971 161.798 32.8291 162.428 31.873C163.058 30.9169 163.994 30.2035 165.083 29.8499C166.172 29.4963 167.349 29.5236 168.421 29.9272C169.492 30.3309 170.395 31.087 170.98 32.0712C173.518 27.3896 180.989 26.546 184.5 30.5512C187.063 29.6451 189.87 29.7084 192.39 30.729C194.91 31.7496 196.969 33.6571 198.18 36.0916C200.269 36.1746 202.287 36.8753 203.978 38.1049C205.669 39.3346 206.957 41.0381 207.68 43C209.032 43.0726 210.341 43.4991 211.477 44.2368C212.612 44.9746 213.534 45.9976 214.15 47.2036C214.765 48.4096 215.053 49.7562 214.985 51.1085C214.917 52.4609 214.494 53.7715 213.76 54.9092C217.043 56.3684 217.879 61.4756 215.219 63.9C216.191 64.3373 217.018 65.0419 217.604 65.9317C218.191 66.8215 218.512 67.8597 218.53 68.9252C218.548 69.9906 218.263 71.0392 217.708 71.9487C217.153 72.8581 216.35 73.5908 215.394 74.0612C217.286 74.236 218.115 76.6984 217.613 78.53C217.112 80.3616 215.789 81.8588 215.098 83.6296C214.528 85.0888 214.406 86.6696 213.927 88.1896C213.462 89.5888 212.699 90.8701 211.69 91.9449C210.681 93.0197 209.45 93.8622 208.083 94.414L208.425 94.7864C208.812 96.4128 206.563 97.6136 204.997 97.0132C203.432 96.4128 202.504 94.8472 201.57 93.4564C200.506 91.868 199.29 90.3328 198.727 88.486C198.165 86.6392 198.659 84.3288 200.331 83.394C198.096 82.7328 196.599 80.5288 196.105 78.2488C195.611 75.9688 195.953 73.6052 196.288 71.3024C196.794 67.8976 197.301 64.4953 197.808 61.0956C195.477 61.0786 193.195 60.4263 191.208 59.209C189.221 57.9917 187.603 56.2555 186.529 54.1872C183.299 56.8472 177.698 55.6616 175.821 51.9072C175.063 54.1977 173.466 56.1165 171.351 57.2781C169.236 58.4398 166.761 58.7583 164.421 58.1696C165.014 60.7992 160.34 63.4136 157.756 64.1888C155.172 64.964 151.843 63.2388 151.843 63.2388C151.843 63.2388 147.45 66.028 144.965 65.1312C142.48 64.2344 139.181 61.2628 140.686 58.6788C140.694 58.6712 139.5 55.6236 139.987 53.1232Z" fill="#263238"/>
<path d="M215.926 63.8316C215.797 63.8316 215.751 64.7208 214.71 65.5264C214.419 65.7525 214.08 65.9095 213.719 65.9859C213.359 66.0622 212.985 66.0559 212.628 65.9672C212.185 65.8525 211.781 65.6225 211.457 65.3007C211.133 64.979 210.899 64.5769 210.781 64.1356L210.606 63.3756L210.028 63.9152C209.54 64.3747 208.924 64.6761 208.262 64.7798C207.599 64.8835 206.921 64.7847 206.316 64.4964C205.71 64.2081 205.206 63.7437 204.869 63.164C204.532 62.5843 204.378 61.9163 204.427 61.2476L204.496 60.4876L203.812 60.8068C202.988 61.1632 202.059 61.185 201.22 60.8676C200.553 60.6034 199.986 60.1353 199.601 59.53C199.297 58.943 199.06 58.3234 198.894 57.6832C198.826 57.6832 198.53 58.504 199.138 59.796C199.516 60.5696 200.15 61.1895 200.931 61.5516C201.438 61.783 201.987 61.9078 202.544 61.9182C203.101 61.9287 203.654 61.8246 204.169 61.6124L203.546 61.1716C203.46 62.0283 203.641 62.8905 204.064 63.6406C204.486 64.3908 205.13 64.9925 205.906 65.3638C206.683 65.7351 207.556 65.858 208.405 65.7158C209.254 65.5735 210.038 65.173 210.652 64.5688L209.892 64.3484C210.058 64.941 210.385 65.4758 210.837 65.8932C211.29 66.3105 211.849 66.594 212.453 66.712C212.916 66.8003 213.394 66.7775 213.848 66.6454C214.301 66.5133 214.716 66.2756 215.06 65.952C216.192 64.8424 215.994 63.786 215.926 63.8316Z" fill="#455A64"/>
<path d="M218.244 76.0372C218.176 75.9612 217.796 76.4096 216.891 76.6148C216.284 76.7656 215.645 76.7253 215.061 76.4996C214.478 76.2738 213.978 75.8735 213.631 75.3532L213.365 74.9124L213.023 75.3C212.619 75.7356 212.109 76.0585 211.543 76.2371C210.976 76.4157 210.373 76.4437 209.793 76.3184C209.126 76.1508 208.527 75.7798 208.081 75.2569C207.634 74.7339 207.361 74.085 207.3 73.4L207.239 72.5564L206.54 73.0428C206.364 73.1688 206.169 73.2663 205.962 73.3316C205.502 73.4934 205.002 73.5071 204.533 73.3708C204.065 73.2345 203.65 72.9551 203.348 72.5716C203.088 72.2059 202.933 71.7762 202.9 71.3289C202.866 70.8815 202.955 70.4335 203.158 70.0332L203.614 69.22L202.71 69.3872C201.785 69.5563 200.831 69.3956 200.013 68.9331C199.195 68.4706 198.565 67.7356 198.233 66.8564C198.016 66.1329 197.894 65.3845 197.868 64.6296C197.823 64.5916 197.352 65.4732 197.747 67.016C198.002 67.9427 198.555 68.7598 199.32 69.3416C199.82 69.7205 200.391 69.9951 201 70.1491C201.608 70.3031 202.241 70.3335 202.862 70.2384L202.413 69.6C202.078 70.1693 201.926 70.8277 201.978 71.4861C202.03 72.1445 202.283 72.7711 202.702 73.2811C203.122 73.7911 203.688 74.1599 204.324 74.3375C204.96 74.5151 205.636 74.4929 206.259 74.274C206.559 74.1739 206.843 74.0305 207.102 73.8484L206.342 73.4988C206.404 74.3154 206.71 75.0946 207.219 75.7359C207.728 76.3772 208.418 76.8511 209.199 77.0965C209.981 77.3419 210.817 77.3476 211.602 77.1127C212.386 76.8778 213.083 76.4132 213.6 75.7788L212.992 75.7332C213.235 76.0977 213.549 76.4098 213.914 76.6513C214.28 76.8928 214.69 77.0587 215.12 77.1392C215.751 77.2711 216.405 77.229 217.013 77.0176C218.016 76.6452 218.32 76.0524 218.244 76.0372Z" fill="#455A64"/>
<path d="M163.288 34.64C163.701 34.2618 164.181 33.963 164.702 33.7584C165.312 33.5527 165.975 33.5715 166.572 33.8116C166.957 33.9733 167.301 34.221 167.576 34.5358C167.851 34.8506 168.051 35.2242 168.16 35.628L168.35 36.388L168.715 35.7192C169.111 35.034 169.674 34.4601 170.352 34.0509C171.03 33.6417 171.8 33.4103 172.591 33.3784C173.545 33.3749 174.476 33.6707 175.253 34.2242C176.03 34.7778 176.614 35.5611 176.923 36.464L177.189 37.2924L177.706 36.578C178.215 35.8963 178.87 35.3376 179.624 34.943C180.378 34.5484 181.21 34.328 182.06 34.298C183.349 34.2858 184.602 34.7219 185.604 35.5315C186.606 36.3412 187.296 37.4742 187.555 38.7364L187.662 39.2532L188.163 39.1088C189.344 38.7985 190.595 38.8917 191.718 39.3737C192.84 39.8556 193.769 40.6986 194.357 41.7688C194.829 42.7333 195.013 43.8136 194.886 44.88C194.76 45.9463 194.328 46.9535 193.643 47.7804L193.164 48.3276L193.878 48.4264C195.435 48.6654 196.838 49.4992 197.792 50.752C198.521 51.7242 198.932 52.8971 198.97 54.1112C198.966 55.1779 198.773 56.2354 198.4 57.2348C198.4 57.2348 198.621 57.0296 198.872 56.4748C199.216 55.7203 199.4 54.9025 199.411 54.0732C199.452 52.7448 199.063 51.4387 198.302 50.3492C197.799 49.6354 197.16 49.0282 196.422 48.5625C195.684 48.0968 194.861 47.7819 194 47.636L194.228 48.2744C195.132 47.2756 195.686 46.0094 195.805 44.6676C195.925 43.3258 195.603 41.9817 194.89 40.8388C194.177 39.696 193.111 38.8169 191.853 38.3346C190.595 37.8524 189.214 37.7933 187.92 38.1664L188.52 38.5388C188.223 37.0507 187.413 35.7143 186.231 34.7628C185.049 33.8113 183.57 33.3052 182.053 33.3328C181.062 33.3705 180.092 33.6322 179.217 34.0982C178.342 34.5641 177.583 35.2223 176.999 36.0232L177.759 36.1448C177.44 35.167 176.839 34.3055 176.031 33.669C175.224 33.0324 174.246 32.6493 173.22 32.568C172.195 32.4867 171.169 32.7109 170.271 33.2122C169.373 33.7135 168.644 34.4695 168.175 35.3848L168.73 35.4456C168.579 34.9638 168.316 34.5243 167.964 34.1625C167.611 33.8008 167.179 33.527 166.701 33.3632C165.997 33.1259 165.231 33.1584 164.55 33.4544C164.137 33.6225 163.768 33.8824 163.471 34.2144C163.319 34.488 163.266 34.64 163.288 34.64Z" fill="#455A64"/>
<path d="M141.514 109.272C141.998 108.922 142.553 108.685 143.139 108.576C143.726 108.467 144.329 108.489 144.906 108.642C145.483 108.795 146.018 109.074 146.474 109.459C146.93 109.844 147.294 110.325 147.541 110.868C148.042 110.077 148.755 109.443 149.599 109.038C150.443 108.633 151.383 108.473 152.314 108.577C153.244 108.68 154.126 109.044 154.86 109.625C155.594 110.206 156.15 110.982 156.464 111.864C157.14 109.097 161.373 108.117 163.197 110.298C163.526 109.713 164.029 109.244 164.637 108.958C165.244 108.672 165.926 108.583 166.587 108.702C166.472 108.079 166.548 107.435 166.804 106.855C167.059 106.275 167.483 105.786 168.021 105.45C168.558 105.114 169.184 104.947 169.818 104.972C170.451 104.996 171.062 105.21 171.572 105.586C171.921 104.945 172.403 104.385 172.984 103.944C173.566 103.504 174.235 103.192 174.947 103.029C175.658 102.867 176.396 102.857 177.112 103.002C177.827 103.147 178.504 103.442 179.096 103.868C179.243 103.256 179.587 102.71 180.077 102.314C180.566 101.919 181.173 101.696 181.802 101.681C182.431 101.666 183.047 101.86 183.554 102.233C184.062 102.605 184.432 103.135 184.606 103.739C185.184 102.928 186.007 102.324 186.954 102.016C187.901 101.708 188.922 101.713 189.866 102.029C189.864 101.574 189.964 101.125 190.156 100.713C190.349 100.301 190.631 99.9363 190.981 99.6458C191.331 99.3553 191.741 99.1458 192.181 99.0323C192.622 98.9188 193.082 98.904 193.529 98.9892C192.989 97.4692 195.262 96.5876 196.379 95.3792C196.88 94.8396 197.177 94.1328 197.724 93.6388C198.271 93.1448 199.244 92.9852 199.662 93.5932C199.466 92.9636 199.512 92.2833 199.791 91.6858C200.07 91.0884 200.563 90.6169 201.172 90.3637C201.781 90.1106 202.463 90.0942 203.083 90.3176C203.704 90.5411 204.218 90.9883 204.526 91.5716C204.82 92.2831 205.012 93.0329 205.096 93.7984C205.598 96.2228 207.148 99.05 205.476 100.882C205.18 101.208 204.784 101.482 204.678 101.908C204.496 102.668 205.233 103.26 205.324 104.005C205.415 104.75 204.686 105.571 204.374 106.384C203.926 107.592 204.48 108.907 204.655 110.184C204.83 111.461 204.192 113.133 202.907 113.08C203.415 114 203.585 115.069 203.388 116.102C203.191 117.134 202.639 118.065 201.828 118.734C202.082 119.267 202.226 119.845 202.251 120.435C202.277 121.024 202.183 121.613 201.976 122.166C201.769 122.718 201.452 123.223 201.046 123.651C200.639 124.079 200.15 124.42 199.609 124.654C200.498 125.285 200.521 126.684 199.951 127.611C199.301 128.495 198.439 129.201 197.443 129.663C197.654 129.793 197.838 129.963 197.984 130.164C198.129 130.366 198.233 130.594 198.289 130.835C198.346 131.077 198.354 131.328 198.313 131.573C198.272 131.818 198.183 132.052 198.051 132.262C197.472 133.089 196.618 133.684 195.642 133.942C195.216 134.03 194.834 134.264 194.562 134.603C194.144 135.294 194.813 136.161 194.73 136.959C194.616 138.19 192.921 138.646 192.45 139.801C192.054 140.827 192.731 142.188 191.978 142.993C191.492 143.51 190.664 143.472 190.002 143.753C188.832 144.247 188.384 145.63 187.677 146.687C186.354 148.693 183.968 149.674 181.68 150.403C180.518 150.768 179.34 151.102 178.162 151.399C175.798 151.984 173.396 152.425 171.002 152.858C169.809 153.078 168.335 153.185 167.643 152.197C166.123 154.348 162.262 154.127 160.963 151.809C158.842 152.516 156.54 151.741 154.442 150.973L152.284 150.16C150.118 149.4 147.724 148.328 146.964 146.155C146.284 146.055 145.634 145.806 145.062 145.425C144.49 145.044 144.009 144.542 143.653 143.953C143.298 143.365 143.078 142.705 143.007 142.022C142.937 141.338 143.019 140.647 143.247 139.999C142.305 140.333 141.309 139.414 141.096 138.433C140.999 137.436 141.068 136.429 141.302 135.454C141.788 131.403 139.417 127.451 139.728 123.385C139.941 120.543 141.454 117.647 140.488 114.964C140.226 114.438 140.058 113.87 139.994 113.285C139.994 112.7 140.496 112.061 141.066 112.198C140.902 111.8 140.839 111.368 140.882 110.94C140.925 110.513 141.073 110.102 141.313 109.745C141.553 109.388 141.877 109.095 142.257 108.894C142.637 108.692 143.06 108.587 143.49 108.588" fill="#263238"/>
<path d="M174.118 106.977C173.647 106.977 173.738 110.085 171.132 112.388C168.525 114.691 165.196 114.448 165.188 114.881C165.188 115.078 165.948 115.466 167.354 115.458C169.184 115.427 170.944 114.752 172.325 113.551C173.653 112.388 174.472 110.751 174.605 108.991C174.704 107.714 174.331 106.946 174.118 106.977Z" fill="white"/>
<path d="M193.673 127.839C193.514 127.793 194.646 124.898 194.479 121.158C194.312 117.419 192.997 114.615 193.156 114.562C193.555 115.107 193.858 115.716 194.053 116.363C194.604 117.897 194.917 119.507 194.98 121.136C195.05 122.766 194.863 124.397 194.426 125.969C194.288 126.632 194.033 127.265 193.673 127.839Z" fill="#455A64"/>
<path d="M196.341 123.15C196.272 123.096 196.698 122.625 196.964 121.69C197.257 120.443 197.285 119.149 197.048 117.89C196.637 114.85 195.664 112.57 195.801 112.57C195.938 112.57 197.124 114.759 197.549 117.89C197.8 119.215 197.716 120.581 197.306 121.865C196.926 122.8 196.364 123.195 196.341 123.15Z" fill="#455A64"/>
<path d="M199.32 120.376C199.168 120.315 200.422 117.928 200.331 114.729C200.24 111.529 198.963 109.181 199.115 109.12C199.516 109.555 199.815 110.074 199.989 110.64C200.528 111.942 200.817 113.335 200.84 114.744C200.865 116.154 200.627 117.555 200.141 118.878C199.973 119.428 199.693 119.938 199.32 120.376Z" fill="#455A64"/>
<path d="M148.468 142.613C147.756 142.486 147.106 142.125 146.622 141.587C145.422 140.348 144.559 138.823 144.114 137.156C143.585 135.53 143.328 133.828 143.354 132.118C143.318 131.412 143.413 130.706 143.635 130.035C143.794 130.035 143.361 133.273 144.562 137.004C144.787 138.156 145.248 139.248 145.914 140.213C146.581 141.179 147.441 141.996 148.438 142.613H148.468Z" fill="#455A64"/>
<path d="M151.151 141.8C150.58 141.616 150.059 141.301 149.631 140.88C148.542 139.946 147.665 138.789 147.061 137.487C146.456 136.185 146.138 134.769 146.128 133.334C146.087 132.741 146.178 132.147 146.394 131.593C146.463 132.166 146.494 132.742 146.485 133.318C146.593 134.689 146.942 136.03 147.518 137.278C148.105 138.518 148.902 139.647 149.874 140.614C150.68 141.321 151.197 141.701 151.151 141.8Z" fill="#455A64"/>
<path d="M161.176 115.838C161.054 115.892 160.583 114.82 160.78 113.429C160.978 112.038 161.723 111.149 161.822 111.233C161.92 111.316 161.449 112.244 161.282 113.513C161.115 114.782 161.32 115.793 161.176 115.838Z" fill="#455A64"/>
<path d="M164.36 114.866C164.284 114.98 163.44 114.311 163.174 113.072C162.908 111.833 163.372 110.876 163.494 110.944C163.615 111.012 163.418 111.894 163.661 112.966C163.904 114.037 164.474 114.767 164.36 114.866Z" fill="#455A64"/>
<path d="M167.544 113.68C167.461 113.786 166.693 113.163 166.313 112.046C165.933 110.929 166.154 109.964 166.313 109.994C166.473 110.024 166.473 110.883 166.822 111.879C167.172 112.874 167.658 113.574 167.544 113.68Z" fill="#455A64"/>
<path d="M169.68 110.891C169.566 110.967 169.156 110.541 168.874 109.872C168.593 109.204 168.593 108.618 168.73 108.588C168.867 108.558 169.087 109.067 169.346 109.682C169.604 110.298 169.832 110.807 169.68 110.891Z" fill="#455A64"/>
<path d="M171.671 109.713C171.542 109.781 171.071 109.181 170.326 108.672C169.581 108.162 168.852 107.912 168.882 107.767C168.912 107.623 169.764 107.661 170.615 108.254C171.466 108.846 171.793 109.652 171.671 109.713Z" fill="#455A64"/>
<path d="M174.529 107.22C174.438 107.342 173.541 106.696 172.249 106.46C170.957 106.224 169.893 106.46 169.855 106.293C169.817 106.126 170.919 105.67 172.348 105.958C173.776 106.247 174.628 107.136 174.529 107.22Z" fill="#455A64"/>
<path d="M164.93 144.323C164.346 143.879 163.854 143.327 163.478 142.697C161.461 139.737 160.664 136.114 161.252 132.581C161.334 131.854 161.551 131.148 161.89 130.499C161.832 131.215 161.738 131.928 161.609 132.634C161.422 134.343 161.515 136.07 161.882 137.749C162.255 139.426 162.894 141.032 163.775 142.507C164.459 143.639 164.998 144.27 164.93 144.323Z" fill="#455A64"/>
<path d="M168.206 143.928C168.145 144.034 166.199 142.34 165.166 139.429C164.132 136.518 164.58 133.987 164.694 134.033C164.808 134.078 164.641 136.488 165.644 139.262C166.648 142.036 168.327 143.829 168.206 143.928Z" fill="#455A64"/>
<path d="M173.906 142.446C173.906 142.507 173.336 142.355 172.545 141.891C171.525 141.262 170.643 140.432 169.954 139.452C169.257 138.477 168.768 137.37 168.517 136.199C168.374 135.72 168.35 135.214 168.449 134.724C168.601 134.724 168.783 137.004 170.364 139.163C171.945 141.321 173.989 142.309 173.906 142.446Z" fill="#455A64"/>
</g>
<defs>
<clipPath id="clip0_8_4100">
<rect width="298" height="297" fill="white"/>
</clipPath>
</defs>
</svg>
