<svg width="24" height="24" viewBox="0 0 24 24" fill="none" xmlns="http://www.w3.org/2000/svg">
<g id="Icon">
<path id="Vector" fill-rule="evenodd" clip-rule="evenodd" d="M10.84 18.849L12 20L13.16 18.8578L13.1916 18.8265C15.6762 16.3656 17.6487 14.412 18.818 12.5235H15.2C14.896 12.5235 14.624 12.3475 14.488 12.0626L13.6 10.2108L11.112 15.4143C10.976 15.6992 10.704 15.8751 10.4 15.8751C10.096 15.8751 9.824 15.6992 9.68 15.4143L8.304 12.5235H5.18238C6.35504 14.4164 8.33536 16.3736 10.8299 18.839L10.84 18.849ZM4.36087 10.8476C4.1246 10.1786 4 9.50108 4 8.79564C4 6.11008 5.936 4 8.4 4C9.792 4 11.128 4.70627 12 5.82235C12.872 4.70627 14.208 4 15.6 4C18.064 4 20 6.11008 20 8.79564C20 9.50104 19.8754 10.1785 19.6392 10.8476H15.696L14.312 7.95684C14.04 7.38707 13.152 7.38707 12.88 7.95684L10.4 13.1603L9.512 11.3085C9.376 11.0236 9.104 10.8476 8.8 10.8476H4.36087Z" fill="#374A45"/>
</g>
</svg>
